<!-- Generator: Adobe Illustrator 18.1.0, SVG Export Plug-In . SVG Version: 6.00 Build 0)  -->
<svg version="1.1" id="adrezzelo" xmlns="http://www.w3.org/2000/svg" xmlns:xlink="http://www.w3.org/1999/xlink" x="0px" y="0px"
	 viewBox="0 0 395.2 155.1" enable-background="new 0 0 395.2 155.1" xml:space="preserve">
<path d="M96.5,103.3c-0.2-1.1-0.4-2.1-0.5-3c-0.1-0.9-0.2-1.7-0.2-2.6c-1.3,1.8-2.9,3.3-4.9,4.5s-4.2,1.8-6.5,1.8
	c-3.9,0-6.8-1-8.8-3c-2-2-3-4.7-3-8.2c0-3.5,1.4-6.3,4.3-8.3c2.9-2,6.7-3,11.6-3h7.3V78c0-2.2-0.7-3.9-2-5.1
	c-1.3-1.3-3.2-1.9-5.6-1.9c-2.2,0-3.9,0.6-5.3,1.7c-1.4,1.1-2,2.4-2,4h-6.4l-0.1-0.2c-0.1-2.7,1.1-5.1,3.8-7.4
	c2.7-2.2,6.1-3.3,10.4-3.3c4.2,0,7.6,1.1,10.1,3.2c2.6,2.1,3.8,5.2,3.8,9.2v17.8c0,1.3,0.1,2.6,0.2,3.8s0.4,2.4,0.8,3.6H96.5z
	 M85.4,98.3c2.4,0,4.6-0.6,6.6-1.9c2-1.2,3.2-2.7,3.8-4.3v-6h-7.6c-2.7,0-4.9,0.7-6.5,2c-1.6,1.4-2.4,3-2.4,4.8
	c0,1.6,0.5,2.9,1.5,3.9C81.8,97.9,83.4,98.3,85.4,98.3z"/>
<path d="M110.8,85.5c0-5.9,1.3-10.7,3.8-14.4c2.5-3.6,6.1-5.5,10.7-5.5c2.2,0,4.1,0.4,5.8,1.2c1.7,0.8,3.1,2,4.3,3.5V50h6.7v53.3
	h-5.5l-0.8-4.5c-1.2,1.7-2.7,3-4.4,3.9c-1.8,0.9-3.8,1.3-6.1,1.3c-4.5,0-8-1.6-10.6-4.9c-2.6-3.3-3.8-7.6-3.8-12.9V85.5z
	 M117.5,86.2c0,3.7,0.8,6.7,2.3,9c1.5,2.2,3.9,3.4,7.1,3.4c2,0,3.7-0.5,5.1-1.4c1.4-0.9,2.5-2.2,3.3-3.8V76.1
	c-0.9-1.5-2-2.7-3.4-3.6c-1.4-0.9-3-1.4-5-1.4c-3.2,0-5.6,1.3-7.2,4s-2.3,6.1-2.3,10.4V86.2z"/>
<path d="M169.6,72.3l-3.5-0.2c-1.8,0-3.3,0.4-4.5,1.3c-1.2,0.8-2.2,2-2.8,3.6v26.4h-6.7v-37h6l0.6,5.4c1-1.9,2.3-3.4,3.9-4.5
	c1.5-1.1,3.3-1.6,5.3-1.6c0.5,0,1,0,1.4,0.1c0.5,0.1,0.8,0.2,1.1,0.3L169.6,72.3z"/>
<path d="M190.8,104c-5.1,0-9.2-1.7-12.3-5.1c-3-3.4-4.6-7.9-4.6-13.3V84c0-5.3,1.6-9.6,4.7-13.1c3.1-3.5,6.8-5.2,11.1-5.2
	c5,0,8.8,1.5,11.3,4.5c2.6,3,3.8,7,3.8,12v4.2h-24l-0.1,0.2c0.1,3.5,1,6.5,2.7,8.7c1.7,2.3,4.2,3.4,7.3,3.4c2.3,0,4.3-0.3,6-1
	c1.7-0.6,3.2-1.5,4.5-2.7l2.6,4.4c-1.3,1.3-3.1,2.4-5.2,3.3C196.5,103.6,193.8,104,190.8,104z M189.7,70.9c-2.3,0-4.2,0.9-5.8,2.8
	c-1.6,1.9-2.6,4.3-2.9,7.1l0.1,0.2h17.1v-0.9c0-2.6-0.7-4.8-2.1-6.6C194.6,71.8,192.5,70.9,189.7,70.9z"/>
<path d="M310.8,104c-5.1,0-9.2-1.7-12.3-5.1c-3-3.4-4.6-7.9-4.6-13.3V84c0-5.3,1.6-9.6,4.7-13.1c3.1-3.5,6.8-5.2,11.1-5.2
	c5,0,8.8,1.5,11.3,4.5c2.6,3,3.8,7,3.8,12v4.2h-24l-0.1,0.2c0.1,3.5,1,6.5,2.7,8.7c1.7,2.3,4.2,3.4,7.3,3.4c2.3,0,4.3-0.3,6-1
	c1.7-0.6,3.2-1.5,4.5-2.7l2.6,4.4c-1.3,1.3-3.1,2.4-5.2,3.3C316.5,103.6,313.9,104,310.8,104z M309.8,70.9c-2.3,0-4.2,0.9-5.8,2.8
	c-1.6,1.9-2.6,4.3-2.9,7.1l0.1,0.2h17.1v-0.9c0-2.6-0.7-4.8-2.1-6.6C314.7,71.8,312.6,70.9,309.8,70.9z"/>
<path fill="none" stroke="#C68E17" stroke-width="5.4" stroke-miterlimit="10" d="M238.9,113.6H59c-5.5,0-10-4.5-10-10V53.1
	c0-5.5,4.5-10,10-10h186.2"/>
<path fill="none" stroke="#C68E17" stroke-width="5.4" stroke-miterlimit="10" d="M259,43.1h79.5c5.5,0,10,4.5,10,10v50.5
	c0,5.5-4.5,10-10,10h-85.8"/>
<path fill="none" stroke="#000000" stroke-width="5.4" stroke-miterlimit="10" d="M259,43.1"/>
<path fill="#C68E17" d="M234.8,41h10.4v4.8l-26.7,39.6h27.8v5.3h-35.4v-5l26.6-39.4l0.7-1"/>
<path fill="#C68E17" d="M262.5,116h-9.8v-5l26.6-39.4h-26.2v-5.3H287V71l-26.7,39.6l-0.8,1.1"/>
</svg>
